:SAMPLES-PER-SECOND 30
:FULLY-SPECIFIED
:DEGREES
450
root  -67.9929 40.1928 -4.03582 -3.28385 -5.82437 3.80869
RightUpLeg  -16.151 13.6889 -23.3416
RightLeg  30.1252 -1.37436 -1.10363
RightFoot  -3.86757 -0.411142 5.87343
RightToes  -4.65663e-010 0 -3.6325e-017
Spine  11.0095 1.20448 -4.64141
Spine1  5.50077 1.59232 -3.57067
HEad  14.9727 -6.02578 -2.91826
LeftShoulder1  5.5504 -7.84749 -42.4375
LeftArm  -11.7916 25.4346 -32.3718
LeftForeArm  41.9693 -46.3077 -8.75171
LeftHand  -0.244104 0.0205437 5.32207
RightShoulder  4.52191 7.65463 34.5683
RightArm  8.43392 -23.6331 40.04
RightForeArm  0.577806 20.649 5.29909
RightHand  -1.67596 4.92649 -18.984
LeftUpLeg  -6.41067 -6.6159 -10.6285
LeftLeg  20.5501 -6.49681 -2.27603
LeftFoot  -9.66627 -0.0496169 7.35842
LeftToes  -5.82109e-011 -4.83791e-012 -1.00937e-011
451
root  -69.1171 39.9831 -3.77942 -2.36622 -0.0918884 5.0553
RightUpLeg  -14.3355 20.9702 -26.552
RightLeg  23.0741 1.20079 0.354465
RightFoot  -7.15215 -0.258804 5.86208
RightToes  -4.65663e-010 0 -3.6325e-017
Spine  11.1082 1.46146 -4.80813
Spine1  5.31309 2.06342 -4.50265
HEad  13.4287 -5.28925 -2.31225
LeftShoulder1  5.65926 -7.974 -42.818
LeftArm  -12.7509 26.192 -31.2049
LeftForeArm  38.668 -44.9686 -8.50234
LeftHand  -0.244104 0.0205437 5.32207
RightShoulder  4.41713 7.46657 34.3116
RightArm  8.95117 -24.047 40.1118
RightForeArm  -0.516337 20.8783 5.3069
RightHand  -1.76323 5.03544 -19.7358
LeftUpLeg  -7.79227 -12.0643 -10.6225
LeftLeg  23.236 -6.9285 -2.91217
LeftFoot  -11.3374 0.0683149 5.75887
LeftToes  -5.82109e-011 -4.83791e-012 -1.00937e-011
452
root  -70.2589 39.799 -3.47195 -1.29929 5.39359 6.48856
RightUpLeg  -12.0314 22.9866 -28.0433
RightLeg  17.9242 4.90642 1.44322
RightFoot  -9.96785 -0.163701 8.21986
RightToes  -4.65663e-010 0 -3.6325e-017
Spine  10.9746 1.82564 -5.24737
Spine1  5.44791 2.49942 -4.74012
HEad  11.43 -2.13559 -2.33836
LeftShoulder1  5.76144 -8.05752 -43.3051
LeftArm  -14.1999 27.4555 -29.8755
LeftForeArm  36.3942 -43.6129 -8.19659
LeftHand  -0.244104 0.0205437 5.32207
RightShoulder  4.41192 7.45816 34.2944
RightArm  10.481 -24.0194 39.4738
RightForeArm  -2.40349 21.3317 5.30615
RightHand  -1.83329 5.10898 -20.3588
LeftUpLeg  -8.9507 -15.9253 -10.3529
LeftLeg  25.0626 -8.6762 -4.06166
LeftFoot  -12.5376 0.118503 4.09567
LeftToes  -5.82109e-011 -4.83791e-012 -1.00937e-011
453
root  -71.4263 39.7225 -3.19991 0.116216 10.8528 7.32117
RightUpLeg  -9.81668 18.5215 -27.0139
RightLeg  15.6441 8.19469 1.56358
RightFoot  -11.857 -0.0287408 11.7933
RightToes  -4.65663e-010 0 -3.6325e-017
Spine  10.9077 2.03188 -4.96066
Spine1  5.46373 2.71688 -4.41095
HEad  9.14139 3.79559 -3.22023
LeftShoulder1  5.91685 -8.1901 -44.0056
LeftArm  -15.9451 28.5965 -28.1458
LeftForeArm  35.7694 -41.5611 -7.58954
LeftHand  -0.244104 0.0205437 5.32207
RightShoulder  4.47953 7.55452 34.5523
RightArm  10.3996 -22.7966 38.6987
RightForeArm  -1.22363 20.4765 5.51032
RightHand  -1.79019 5.13138 -19.8542
LeftUpLeg  -10.3509 -18.571 -8.82464
LeftLeg  25.924 -11.5695 -5.72572
LeftFoot  -13.1336 0.111236 2.04902
LeftToes  -5.82109e-011 -4.83791e-012 -1.00937e-011
454
root  -72.5929 39.7692 -3.02477 1.38119 15.876 6.89304
RightUpLeg  -8.98966 13.2914 -24.4848
RightLeg  16.4711 7.81333 1.3783
RightFoot  -13.019 0.109553 13.6871
RightToes  -4.65663e-010 0 -3.6325e-017
Spine  11.4083 2.06539 -1.94534
Spine1  5.117 3.26633 -5.43398
HEad  6.92993 10.4134 -4.71703
LeftShoulder1  6.15172 -8.51002 -44.5663
LeftArm  -17.7369 28.7461 -26.3722
LeftForeArm  36.0506 -37.8591 -6.5057
LeftHand  -0.244104 0.0205437 5.32207
RightShoulder  4.51027 7.51917 34.955
RightArm  6.86357 -20.2043 38.2589
RightForeArm  3.48869 17.8313 6.15416
RightHand  -1.73899 5.2683 -19.0682
LeftUpLeg  -12.0692 -20.8605 -5.61358
LeftLeg  26.1304 -14.7321 -7.41098
LeftFoot  -13.3618 0.0785158 -0.0960246
LeftToes  -5.82109e-011 -4.83791e-012 -1.00937e-011
